<?xml version="1.0" encoding="iso-8859-1"?>
<!-- Generator: Adobe Illustrator 19.0.0, SVG Export Plug-In . SVG Version: 6.00 Build 0)  -->
<svg version="1.1" id="Capa_1" xmlns="http://www.w3.org/2000/svg" xmlns:xlink="http://www.w3.org/1999/xlink" x="0px" y="0px"
	 viewBox="0 0 384 384" style="enable-background:new 0 0 384 384;" xml:space="preserve">
<polygon style="fill:#00FFB0;" points="227.336,60 192.168,16 157.008,60 157.008,244.8 104.264,244.8 104.264,174.4 51.152,174.4 
	51.152,244.8 15.992,244.8 15.992,315.2 103.904,315.2 103.904,368 280.08,368 280.08,315.2 367.992,315.2 367.992,244.8 
	332.824,244.8 332.824,174.4 279.72,174.4 279.72,244.8 227.336,244.8 "/>
<g>
	<path style="fill:#000A64;" d="M384,244.8c0-8.832-7.168-16-16-16h-19.168v-54.4c0-8.832-7.168-16-16-16H279.72
		c-8.832,0-16,7.168-16,16v54.4h-20.384V60c0-3.632-1.232-7.152-3.504-9.992l-35.168-44c-6.08-7.6-18.92-7.6-25,0l-35.168,44
		c-2.264,2.832-3.504,6.36-3.504,9.992v168.8h-20.744v-54.4c0-8.832-7.168-16-16-16H51.136c-8.832,0-16,7.168-16,16v54.4H16
		c-8.832,0-16,7.168-16,16v70.4c0,8.832,7.168,16,16,16h71.912V368c0,8.832,7.168,16,16,16h176.176c8.832,0,16-7.168,16-16v-36.8
		H368c8.832,0,16-7.168,16-16V244.8z M352,299.2h-71.912c-8.832,0-16,7.168-16,16V352H119.912v-36.8c0-8.832-7.168-16-16-16H32
		v-38.4h19.168c8.832,0,16-7.168,16-16v-54.4H88.28v54.4c0,8.832,7.168,16,16,16h52.744c8.832,0,16-7.168,16-16V65.608
		l19.168-23.984l19.168,23.984V244.8c0,8.832,7.168,16,16,16h52.384c8.832,0,16-7.168,16-16v-54.4h21.112v54.4
		c0,8.832,7.168,16,16,16H352L352,299.2L352,299.2z"/>
	<path style="fill:#000A64;" d="M227.296,299.2h-70.328c-8.832,0-16,7.168-16,16s7.168,16,16,16h70.328c8.832,0,16-7.168,16-16
		S236.128,299.2,227.296,299.2z"/>
	<path style="fill:#000A64;" d="M77.848,79.752c-8.832,0-16,7.168-16,16V121.6c0,8.832,7.168,16,16,16s16-7.168,16-16V95.752
		C93.848,86.912,86.68,79.752,77.848,79.752z"/>
	<path style="fill:#000A64;" d="M306.416,79.752c-8.832,0-16,7.168-16,16V121.6c0,8.832,7.168,16,16,16s16-7.168,16-16V95.752
		C322.416,86.912,315.248,79.752,306.416,79.752z"/>
	<path style="fill:#000A64;" d="M93.848,16c0-8.832-7.168-16-16-16s-16,7.168-16,16v25.848c0,8.832,7.168,16,16,16s16-7.168,16-16
		V16z"/>
	<path style="fill:#000A64;" d="M322.416,16c0-8.832-7.168-16-16-16s-16,7.168-16,16v25.848c0,8.832,7.168,16,16,16s16-7.168,16-16
		V16z"/>
</g>
<g>
</g>
<g>
</g>
<g>
</g>
<g>
</g>
<g>
</g>
<g>
</g>
<g>
</g>
<g>
</g>
<g>
</g>
<g>
</g>
<g>
</g>
<g>
</g>
<g>
</g>
<g>
</g>
<g>
</g>
</svg>
